Coordinates
version=1
nRows=17
nColumns=34
inDegrees=yes

Units are S.I. units (second, meters, Newtons, ...)
If the header above contains a line with 'inDegrees', this indicates whether rotational values are in degrees (yes) or radians (no).

endheader
time	pelvis_tilt	pelvis_list	pelvis_rotation	pelvis_tx	pelvis_ty	pelvis_tz	hip_flexion_r	hip_adduction_r	hip_rotation_r	knee_angle_r	ankle_angle_r	subtalar_angle_r	mtp_angle_r	hip_flexion_l	hip_adduction_l	hip_rotation_l	knee_angle_l	ankle_angle_l	subtalar_angle_l	mtp_angle_l	lumbar_extension	lumbar_bending	lumbar_rotation	arm_flex_r	arm_add_r	arm_rot_r	elbow_flex_r	pro_sup_r	arm_flex_l	arm_add_l	arm_rot_l	elbow_flex_l	pro_sup_l
      7.46666670	    -35.17258257	      1.18778911	      2.79626002	      0.50552759	      0.55498925	     -0.10170781	    119.27439299	    -20.03987346	      4.00125440	    115.12748118	     29.67827819	    -28.45413915	      0.00000000	    119.99999986	    -10.91914577	      4.52246494	    114.87500999	     34.42799184	     -2.59895003	      0.00000000	    -35.20157728	      1.74687041	     -4.39922767	    130.88108752	     -4.00356298	     33.00859182	     49.91721169	     66.45502237	    131.19272797	      2.48249998	     31.36024405	     42.02751952	     26.65611938
      7.48333330	    -33.62199886	      1.31076303	      2.85353792	      0.50257876	      0.54607717	     -0.10526176	    119.44635311	    -20.23512686	      4.81558361	    116.74483521	     30.69743417	    -27.11283571	      0.00000000	    119.99999986	    -11.01132672	      4.51141513	    116.80179559	     34.42364293	     -2.40618998	      0.00000000	    -37.05076353	      1.92613030	     -6.17359878	    130.17846525	     -1.05970567	     30.02344929	     49.18473920	     66.81180804	    132.42405007	      1.53061650	     33.08038977	     40.03285548	     27.92868380
      7.50000000	    -31.83404581	      1.71078007	      2.74294259	      0.50127109	      0.53180049	     -0.11457887	    119.67694456	    -20.43365732	      6.09024721	    118.71085748	     32.57987778	    -24.85069502	      0.00000000	    119.99999986	    -11.03520753	      4.25025217	    119.10373017	     34.22894717	     -2.87751312	      0.00000000	    -39.84371876	      2.22216396	     -6.92413862	    132.96251645	      0.08369591	     29.98687569	     46.58557773	     66.93303828	    135.03470422	      1.36317376	     33.74391527	     37.44938245	     28.06962553
      7.51666670	    -30.24034019	      2.11149659	      2.32817521	      0.50978129	      0.52239634	     -0.12117582	    119.99999986	    -20.58523675	      7.37952026	    120.59787062	     34.03318932	    -22.47436384	      0.00000000	    119.99999986	    -11.21692818	      4.10001803	    121.43979219	     34.22147965	     -3.41119825	      0.00000000	    -42.38713339	      2.45543279	     -7.32943991	    135.26868441	     -0.12066386	     31.24658068	     45.31688957	     67.25085563	    137.45569182	      0.71913305	     36.09765860	     36.15483264	     28.06032145
      7.53333330	    -28.60644106	      2.34713842	      2.04932479	      0.49306402	      0.51230129	     -0.12192582	    119.99999986	    -20.73123938	      8.22050751	    121.62461736	     34.79190999	    -20.60355758	      0.00000000	    119.99999986	    -10.96777367	      3.82744270	    122.95728236	     33.30493986	     -4.62274454	      0.00000000	    -45.18878566	      2.72000965	     -7.27460450	    139.00825294	     -0.19175773	     33.46769918	     42.22708512	     67.22812699	    141.01748618	      0.81299753	     38.08634458	     33.75023188	     27.50074783
      7.55000000	    -27.19343044	      2.25820337	      2.14023534	      0.51400666	      0.50377319	     -0.13031217	    119.99999986	    -21.64328606	      9.34673772	    123.57106508	     36.19779666	    -18.84240931	      0.00000000	    119.99999986	    -10.30418162	      4.14693466	    125.00863480	     33.10116909	     -5.41954788	      0.00000000	    -46.95784242	      3.56669084	     -6.89703986	    140.90705162	     -1.21017785	     36.52512991	     40.79559862	     67.10390747	    142.02683656	      0.82969281	     38.97021359	     33.39444607	     26.67992239
      7.56666670	    -26.32220546	      2.69508955	      1.83046414	      0.50964646	      0.50128455	     -0.13363962	    119.99999986	    -22.10516138	     10.50854432	    123.99901093	     37.04957442	    -16.28538666	      0.00000000	    119.99999986	    -10.09378433	      3.66556638	    126.21741750	     32.59121914	     -6.32450490	      0.00000000	    -48.31246801	      3.49762336	     -6.91854890	    141.85337888	     -1.16411315	     37.23583822	     39.89886600	     66.93532485	    143.50853065	      1.07719225	     39.24298141	     31.64973271	     26.37138414
      7.58333330	    -25.04059804	      2.67175697	      1.57416202	      0.47826961	      0.48691996	     -0.12227900	    119.99999986	    -21.94964500	     10.58405480	    123.91372907	     36.99046174	    -15.29385490	      0.00000000	    119.99999986	     -9.66382229	      4.16609960	    126.41677849	     31.91665089	     -6.67755103	      0.00000000	    -50.58991283	      3.49780217	     -6.87274655	    145.22112074	     -0.44943539	     39.83589753	     36.79385891	     64.79137675	    147.32918690	      1.08639712	     43.54626980	     27.64583823	     24.74150071
      7.60000000	    -23.99074972	      2.58815987	      1.40434596	      0.49411791	      0.49205870	     -0.12985146	    119.99999986	    -22.11326162	     10.56941596	    124.47963392	     37.13264329	    -14.92478578	      0.00000000	    119.99999986	     -9.32224543	      4.83930844	    127.08390935	     30.66410204	     -7.04347698	      0.00000000	    -52.17375256	      3.57705005	     -6.62388237	    146.23569223	     -0.42469494	     40.05354196	     35.69208485	     64.37626178	    148.48122803	      1.16826842	     43.61886631	     26.33846672	     24.14123414
      7.61666670	    -23.16411508	      2.46126342	      1.21407464	      0.47656122	      0.48371578	     -0.12017042	    119.99999986	    -21.67169414	      9.87527051	    124.48465128	     36.00325946	    -16.03894288	      0.00000000	    119.99999986	     -9.48482383	      5.43920478	    127.01605945	     29.75985063	     -6.28035809	      0.00000000	    -53.57390261	      3.46420950	     -6.17593392	    148.25908512	      0.02101197	     42.52784291	     33.25113817	     62.50056357	    150.54146659	      1.15048324	     46.86364418	     24.54982090	     22.11399175
      7.63333330	    -22.58664232	      2.34580188	      1.20924322	      0.47959681	      0.48406145	     -0.11816990	    119.99999986	    -21.29907332	      9.39817213	    124.85007669	     34.94160822	    -17.58583325	      0.00000000	    119.99999986	     -9.59403802	      6.09399206	    127.16347128	     28.58253150	     -6.37586440	      0.00000000	    -54.27494333	      3.38910555	     -6.19106801	    148.63131974	      0.15194804	     42.15687369	     32.79454641	     61.91620545	    151.02227460	      0.97574771	     47.23671781	     24.13716498	     21.53240448
      7.65000000	    -22.30894039	      2.45257161	      1.02857882	      0.47925115	      0.48306004	     -0.12186907	    119.99999986	    -20.67943862	      9.26989812	    124.75683110	     34.22016897	    -18.29992355	      0.00000000	    119.99999986	     -9.88042987	      6.25196704	    127.09444405	     28.14478033	     -6.21799907	      0.00000000	    -54.66260745	      3.10258136	     -6.24154896	    148.96680928	      0.28839303	     42.00045976	     32.56403842	     61.63654209	    151.45994909	      0.97014274	     47.53643622	     23.96211488	     21.25279790
      7.66666670	    -22.53376618	      2.30667434	      0.95676934	      0.48717680	      0.49014892	     -0.12268494	    119.99999986	    -20.16591637	      9.29822268	    124.67732280	     33.53279097	    -19.12031900	      0.00000000	    119.99999986	    -10.14025714	      6.35252295	    126.92428672	     27.75217086	     -6.20136205	      0.00000000	    -54.26925667	      3.09735932	     -6.08805425	    148.44036570	      0.10725835	     41.94211291	     32.92214186	     61.43058859	    150.85794039	      0.93451018	     47.96524725	     23.98204432	     21.03360233
      7.68333330	    -22.91899730	      2.32495454	      0.77101291	      0.48266554	      0.48983182	     -0.12485354	    119.99999986	    -19.62472009	      9.20158576	    124.37121467	     32.88524523	    -19.91116804	      0.00000000	    119.99999986	    -10.44414315	      6.15004641	    126.59716381	     28.03359826	     -5.82627227	      0.00000000	    -53.59767959	      2.83790871	     -6.10298423	    147.88127859	     -0.04704246	     41.60865944	     33.32939189	     61.09656923	    150.19598863	      0.96217639	     48.16474199	     24.38734923	     20.66989314
      7.70000000	    -23.54942949	      2.48501974	      0.29012858	      0.48475268	      0.49804660	     -0.13102441	    119.99999986	    -19.04782597	      9.31988901	    123.69546168	     32.69515429	    -19.65156901	      0.00000000	    119.99999986	    -10.88716763	      5.56195217	    126.14408663	     28.48784307	     -5.66098694	      0.00000000	    -52.64700074	      2.56898145	     -6.47649636	    147.02561764	     -0.00687003	     41.43273834	     33.97157966	     60.94399561	    149.52040100	      0.76288416	     48.07607551	     24.52271527	     20.42095376
      7.71666670	    -24.17072152	      2.62107174	      0.18894409	      0.48532797	      0.49937054	     -0.12921327	    119.99999986	    -18.85304624	      9.43590110	    123.29436460	     32.68705550	    -19.28209601	      0.00000000	    119.99999986	    -11.04716823	      4.98238028	    125.68156905	     29.18036831	     -5.22246950	      0.00000000	    -51.57266866	      2.50658850	     -7.00516994	    146.12045704	      0.00567792	     40.74075931	     35.21256766	     60.70249726	    148.74522909	      0.49103278	     47.54118092	     25.60141939	     20.09274702
      7.73333330	    -25.36912813	      2.42396488	      0.23247440	      0.52104713	      0.51900033	     -0.13791476	    119.99999986	    -19.38874623	      9.56152067	    123.23981436	     32.28860406	    -19.85635650	      0.00000000	    119.99999986	    -11.00219675	      4.64775070	    125.68469197	     29.78615485	     -5.26188281	      0.00000000	    -49.31505577	      2.89009475	     -6.87048054	    142.76809822	     -0.51524781	     38.64509078	     38.45375142	     61.02872290	    144.89415793	      0.10292196	     43.45060553	     29.39158842	     20.13362566
